<svg width="21" height="21" viewBox="0 0 21 21" fill="none" xmlns="http://www.w3.org/2000/svg">
<g id="Frame" clip-path="url(#clip0_940_1910)">
<path id="Vector" fill-rule="evenodd" clip-rule="evenodd" d="M20.427 12.404C20.419 13.835 19.728 15.056 18.611 15.76C18.585 15.778 18.557 15.794 18.53 15.811C18.503 15.827 18.476 15.843 18.448 15.859C18.44 15.863 18.432 15.868 18.423 15.873C18.136 16.031 17.825 16.159 17.493 16.248C17.483 16.251 17.472 16.254 17.462 16.256C17.377 16.278 17.291 16.298 17.204 16.316C16.995 16.357 16.778 16.376 16.562 16.382C16.528 16.383 16.493 16.384 16.458 16.384C16.447 16.384 16.434 16.384 16.422 16.384H16.227C15.446 16.387 14.666 16.387 13.885 16.388C12.46 16.389 11.036 16.389 9.61102 16.387C7.35702 16.384 5.60802 14.655 5.59902 12.404C5.59302 10.873 5.59102 9.34002 5.59302 7.80902C5.59102 6.72302 5.59102 5.63802 5.59602 4.55302C5.60302 3.08802 6.32702 1.84302 7.49102 1.14802C7.54602 1.11502 7.60202 1.08302 7.65802 1.05202C7.90902 0.918022 8.17902 0.809022 8.46502 0.727022C8.49702 0.718022 8.52802 0.709022 8.56102 0.701022C8.88002 0.620022 9.21602 0.575022 9.56502 0.574022C9.69802 0.573022 9.83102 0.572022 9.96402 0.572022C10.715 0.570022 11.465 0.569022 12.216 0.569022C13.615 0.567022 15.013 0.568022 16.412 0.570022C18.666 0.573022 20.415 2.30202 20.424 4.55302C20.43 6.08402 20.432 7.61602 20.43 9.14802C20.432 10.233 20.432 11.318 20.427 12.404ZM9.45502 17.866C11.27 17.879 13.084 17.87 14.899 17.871C14.984 17.871 15.068 17.871 15.2 17.871C14.591 19.2 13.621 20.009 12.221 20.277C11.965 20.325 11.699 20.336 11.438 20.336C9.19102 20.341 6.94302 20.342 4.69602 20.338C2.61602 20.334 1.02102 18.97 0.69502 16.919C0.66502 16.729 0.66202 16.534 0.66202 16.341C0.66002 13.732 0.65602 11.122 0.66302 8.51102C0.66802 6.56302 1.95702 4.99202 3.85702 4.59602C3.93102 4.58102 4.00602 4.57302 4.11402 4.55702C4.11402 4.66702 4.11402 4.75702 4.11402 4.84702C4.11402 7.34902 4.10402 9.85102 4.11702 12.353C4.12602 14.26 4.91202 15.785 6.46402 16.896C7.35302 17.532 8.36102 17.858 9.45502 17.866Z" fill="white"/>
</g>
<defs>
<clipPath id="clip0_940_1910">
<rect width="21" height="21" fill="white"/>
</clipPath>
</defs>
</svg>
