<svg width="58" height="89" viewBox="0 0 58 89" fill="none" xmlns="http://www.w3.org/2000/svg">
<path d="M9.67775 1.31837C9.94038 1.05574 10.3662 1.05574 10.6288 1.31838L55.4351 46.1247C56.69 47.3796 56.6901 49.4143 55.4351 50.6692L50.4688 55.6355C49.2139 56.8904 47.1792 56.8904 45.9243 55.6355L9.67775 19.3889C4.68771 14.3989 4.68771 6.30842 9.67775 1.31837Z" fill="#541EAD"/>
<path d="M9.25378 31.893C9.39575 31.751 9.62592 31.751 9.76788 31.893L54.7927 76.9177C56.0476 78.1727 56.0476 80.2073 54.7927 81.4623L48.8394 87.4156C48.1295 88.1254 46.9787 88.1254 46.2689 87.4156L9.25379 50.4005C4.14308 45.2898 4.14307 37.0037 9.25378 31.893Z" fill="#F53B1F"/>
</svg>
