<svg width="100" height="50" viewBox="0 0 100 50" fill="none" xmlns="http://www.w3.org/2000/svg">
<path d="M15.2833 3.38582C15.9456 1.36582 17.8308 0 19.9566 0H77.4418C79.6729 0 81.2524 2.1801 80.5573 4.30017L66.6839 46.6142C66.0216 48.6342 64.1364 50 62.0106 50H6.7881C3.44145 50 1.07218 46.7298 2.11484 43.5498L15.2833 3.38582Z" fill="url(#paint0_linear_875_1563)"/>
<path d="M84.8759 1.1286C85.0967 0.455272 85.725 0 86.4336 0H97.7373C98.8529 0 99.6426 1.09005 99.2951 2.15008L83.9766 48.8714C83.7558 49.5447 83.1275 50 82.4189 50H71.1152C69.9996 50 69.2099 48.9099 69.5574 47.8499L84.8759 1.1286Z" fill="url(#paint1_linear_875_1563)" fill-opacity="0.5"/>
<path d="M31.646 29.506C30.542 28.27 29.99 26.668 29.99 24.7C29.99 22.732 30.542 21.13 31.646 19.894C32.75 18.658 34.088 18.04 35.66 18.04C37.232 18.04 38.57 18.658 39.674 19.894C40.778 21.13 41.33 22.732 41.33 24.7C41.33 26.668 40.778 28.27 39.674 29.506C38.57 30.742 37.232 31.36 35.66 31.36C34.088 31.36 32.75 30.742 31.646 29.506ZM32.744 20.938C31.988 21.838 31.61 23.092 31.61 24.7C31.61 26.308 31.988 27.568 32.744 28.48C33.512 29.38 34.484 29.83 35.66 29.83C36.836 29.83 37.802 29.38 38.558 28.48C39.326 27.568 39.71 26.308 39.71 24.7C39.71 23.092 39.326 21.838 38.558 20.938C37.802 20.026 36.836 19.57 35.66 19.57C34.484 19.57 33.512 20.026 32.744 20.938ZM42.8642 31V29.47L47.0042 26.41C48.1442 25.558 48.9542 24.826 49.4342 24.214C49.9142 23.602 50.1542 22.894 50.1542 22.09C50.1542 21.358 49.9022 20.758 49.3982 20.29C48.9062 19.81 48.2582 19.57 47.4542 19.57C46.4222 19.57 45.6542 19.99 45.1502 20.83C44.9102 21.214 44.7482 21.634 44.6642 22.09H42.9542C43.0622 21.346 43.2962 20.674 43.6562 20.074C44.5082 18.718 45.7742 18.04 47.4542 18.04C48.7022 18.04 49.7342 18.43 50.5502 19.21C51.3662 19.99 51.7742 20.95 51.7742 22.09C51.7742 23.182 51.4622 24.142 50.8382 24.97C50.2262 25.786 49.3082 26.626 48.0842 27.49L45.4742 29.344L45.2942 29.452V29.488L45.4562 29.47H51.7742V31H42.8642Z" fill="white"/>
<defs>
<linearGradient id="paint0_linear_875_1563" x1="20.4918" y1="-1.5625" x2="46.9191" y2="64.1901" gradientUnits="userSpaceOnUse">
<stop stop-color="#F53B1F"/>
<stop offset="1" stop-color="#DC2B10"/>
</linearGradient>
<linearGradient id="paint1_linear_875_1563" x1="89.3443" y1="-1.5625" x2="115.772" y2="64.1901" gradientUnits="userSpaceOnUse">
<stop stop-color="#F53B1F"/>
<stop offset="1" stop-color="#DC2B10"/>
</linearGradient>
</defs>
</svg>
