<svg width="100" height="50" viewBox="0 0 100 50" fill="none" xmlns="http://www.w3.org/2000/svg">
<path d="M15.2833 3.38582C15.9456 1.36582 17.8308 0 19.9566 0H77.4418C79.6729 0 81.2524 2.1801 80.5573 4.30017L66.6839 46.6142C66.0216 48.6342 64.1364 50 62.0106 50H6.7881C3.44145 50 1.07218 46.7298 2.11484 43.5498L15.2833 3.38582Z" fill="url(#paint0_linear_875_1567)"/>
<path d="M84.8759 1.1286C85.0967 0.455272 85.725 0 86.4336 0H97.7373C98.8529 0 99.6426 1.09005 99.2951 2.15008L83.9766 48.8714C83.7558 49.5447 83.1275 50 82.4189 50H71.1152C69.9996 50 69.2099 48.9099 69.5574 47.8499L84.8759 1.1286Z" fill="url(#paint1_linear_875_1567)" fill-opacity="0.5"/>
<path d="M30.646 29.506C29.542 28.27 28.99 26.668 28.99 24.7C28.99 22.732 29.542 21.13 30.646 19.894C31.75 18.658 33.088 18.04 34.66 18.04C36.232 18.04 37.57 18.658 38.674 19.894C39.778 21.13 40.33 22.732 40.33 24.7C40.33 26.668 39.778 28.27 38.674 29.506C37.57 30.742 36.232 31.36 34.66 31.36C33.088 31.36 31.75 30.742 30.646 29.506ZM31.744 20.938C30.988 21.838 30.61 23.092 30.61 24.7C30.61 26.308 30.988 27.568 31.744 28.48C32.512 29.38 33.484 29.83 34.66 29.83C35.836 29.83 36.802 29.38 37.558 28.48C38.326 27.568 38.71 26.308 38.71 24.7C38.71 23.092 38.326 21.838 37.558 20.938C36.802 20.026 35.836 19.57 34.66 19.57C33.484 19.57 32.512 20.026 31.744 20.938ZM41.7742 27.58H43.4842C43.5922 28.024 43.7782 28.402 44.0422 28.714C44.6422 29.458 45.5062 29.83 46.6342 29.83C47.6062 29.83 48.3562 29.596 48.8842 29.128C49.4242 28.66 49.6942 28.054 49.6942 27.31C49.6942 26.566 49.4302 25.96 48.9022 25.492C48.3742 25.024 47.6482 24.79 46.7242 24.79H44.1142V23.35L48.3262 19.948L48.3442 19.93H42.4042V18.4H50.5942V19.93L46.6342 23.116L46.4722 23.242L46.4542 23.26H46.7242C48.0442 23.26 49.1362 23.662 50.0002 24.466C50.8762 25.258 51.3142 26.206 51.3142 27.31C51.3142 28.426 50.8702 29.38 49.9822 30.172C49.1062 30.964 47.9902 31.36 46.6342 31.36C44.8342 31.36 43.4962 30.73 42.6202 29.47C42.2122 28.894 41.9302 28.264 41.7742 27.58Z" fill="white"/>
<defs>
<linearGradient id="paint0_linear_875_1567" x1="20.4918" y1="-1.5625" x2="46.9191" y2="64.1901" gradientUnits="userSpaceOnUse">
<stop stop-color="#F53B1F"/>
<stop offset="1" stop-color="#DC2B10"/>
</linearGradient>
<linearGradient id="paint1_linear_875_1567" x1="89.3443" y1="-1.5625" x2="115.772" y2="64.1901" gradientUnits="userSpaceOnUse">
<stop stop-color="#F53B1F"/>
<stop offset="1" stop-color="#DC2B10"/>
</linearGradient>
</defs>
</svg>
