<svg width="100" height="50" viewBox="0 0 100 50" fill="none" xmlns="http://www.w3.org/2000/svg">
<path d="M15.2833 3.38582C15.9456 1.36582 17.8308 0 19.9566 0H77.4418C79.6729 0 81.2524 2.1801 80.5573 4.30017L66.6839 46.6142C66.0216 48.6342 64.1364 50 62.0106 50H6.7881C3.44145 50 1.07218 46.7298 2.11484 43.5498L15.2833 3.38582Z" fill="url(#paint0_linear_875_1562)"/>
<path d="M84.8759 1.1286C85.0966 0.455272 85.725 0 86.4336 0H97.7373C98.8529 0 99.6426 1.09005 99.2951 2.15008L83.9766 48.8714C83.7558 49.5447 83.1274 50 82.4188 50H71.1152C69.9996 50 69.2099 48.9099 69.5574 47.8499L84.8759 1.1286Z" fill="url(#paint1_linear_875_1562)" fill-opacity="0.5"/>
<path d="M33.646 29.506C32.542 28.27 31.99 26.668 31.99 24.7C31.99 22.732 32.542 21.13 33.646 19.894C34.75 18.658 36.088 18.04 37.66 18.04C39.232 18.04 40.57 18.658 41.674 19.894C42.778 21.13 43.33 22.732 43.33 24.7C43.33 26.668 42.778 28.27 41.674 29.506C40.57 30.742 39.232 31.36 37.66 31.36C36.088 31.36 34.75 30.742 33.646 29.506ZM34.744 20.938C33.988 21.838 33.61 23.092 33.61 24.7C33.61 26.308 33.988 27.568 34.744 28.48C35.512 29.38 36.484 29.83 37.66 29.83C38.836 29.83 39.802 29.38 40.558 28.48C41.326 27.568 41.71 26.308 41.71 24.7C41.71 23.092 41.326 21.838 40.558 20.938C39.802 20.026 38.836 19.57 37.66 19.57C36.484 19.57 35.512 20.026 34.744 20.938ZM44.7742 22.09V20.29L47.2042 18.4H48.6442V31H47.0242V20.38L44.7742 22.09Z" fill="white"/>
<defs>
<linearGradient id="paint0_linear_875_1562" x1="20.4918" y1="-1.5625" x2="46.9191" y2="64.1901" gradientUnits="userSpaceOnUse">
<stop stop-color="#F53B1F"/>
<stop offset="1" stop-color="#DC2B10"/>
</linearGradient>
<linearGradient id="paint1_linear_875_1562" x1="89.3443" y1="-1.5625" x2="115.772" y2="64.1901" gradientUnits="userSpaceOnUse">
<stop stop-color="#F53B1F"/>
<stop offset="1" stop-color="#DC2B10"/>
</linearGradient>
</defs>
</svg>
